<mxfile host="378f13cd-8cfc-4527-96fa-6faab4d03e09" modified="2020-08-02T12:50:47.595Z" agent="5.0 (Windows NT 10.0; Win64; x64) AppleWebKit/537.36 (KHTML, like Gecko) VSCodium/1.47.2 Chrome/78.0.3904.130 Electron/7.3.2 Safari/537.36" etag="Z-lY7qD8nbU28JNNu-ZA" version="13.1.3" pages="3">
    <diagram id="6hGFLwfOUW9BJ-s0fimq" name="Page-1">
        <mxGraphModel dx="992" dy="577" grid="1" gridSize="10" guides="1" tooltips="1" connect="1" arrows="1" fold="1" page="1" pageScale="1" pageWidth="827" pageHeight="1169" math="0" shadow="0">
            <root>
                <mxCell id="0"/>
                <mxCell id="1" parent="0"/>
                <mxCell id="17" style="rounded=0;orthogonalLoop=1;jettySize=auto;html=1;" edge="1" parent="1" source="11" target="12">
                    <mxGeometry relative="1" as="geometry"/>
                </mxCell>
                <mxCell id="18" style="rounded=0;orthogonalLoop=1;jettySize=auto;html=1;" edge="1" parent="1" source="11" target="15">
                    <mxGeometry relative="1" as="geometry"/>
                </mxCell>
                <mxCell id="19" style="rounded=0;orthogonalLoop=1;jettySize=auto;html=1;" edge="1" parent="1" source="11" target="14">
                    <mxGeometry relative="1" as="geometry"/>
                </mxCell>
                <mxCell id="11" value="负载均衡器" style="verticalLabelPosition=bottom;aspect=fixed;html=1;verticalAlign=top;strokeColor=none;align=center;outlineConnect=0;shape=mxgraph.citrix.proxy_server;" vertex="1" parent="1">
                    <mxGeometry x="400" y="270" width="76.5" height="90" as="geometry"/>
                </mxCell>
                <mxCell id="12" value="应用服务器" style="verticalLabelPosition=bottom;aspect=fixed;html=1;verticalAlign=top;strokeColor=none;align=center;outlineConnect=0;shape=mxgraph.citrix.web_server;" vertex="1" parent="1">
                    <mxGeometry x="610" y="140" width="76.5" height="90" as="geometry"/>
                </mxCell>
                <mxCell id="16" style="edgeStyle=orthogonalEdgeStyle;rounded=0;orthogonalLoop=1;jettySize=auto;html=1;" edge="1" parent="1" source="13" target="11">
                    <mxGeometry relative="1" as="geometry"/>
                </mxCell>
                <mxCell id="13" value="客户端" style="verticalLabelPosition=bottom;aspect=fixed;html=1;verticalAlign=top;strokeColor=none;align=center;outlineConnect=0;shape=mxgraph.citrix.laptop_2;" vertex="1" parent="1">
                    <mxGeometry x="140" y="271.75" width="116" height="86.5" as="geometry"/>
                </mxCell>
                <mxCell id="14" value="应用服务器" style="verticalLabelPosition=bottom;aspect=fixed;html=1;verticalAlign=top;strokeColor=none;align=center;outlineConnect=0;shape=mxgraph.citrix.web_server;" vertex="1" parent="1">
                    <mxGeometry x="610" y="271.75" width="76.5" height="90" as="geometry"/>
                </mxCell>
                <mxCell id="15" value="应用服务器" style="verticalLabelPosition=bottom;aspect=fixed;html=1;verticalAlign=top;strokeColor=none;align=center;outlineConnect=0;shape=mxgraph.citrix.web_server;" vertex="1" parent="1">
                    <mxGeometry x="610" y="410" width="76.5" height="90" as="geometry"/>
                </mxCell>
                <mxCell id="35" style="edgeStyle=none;rounded=0;orthogonalLoop=1;jettySize=auto;html=1;" edge="1" parent="1" source="32" target="11">
                    <mxGeometry relative="1" as="geometry"/>
                </mxCell>
                <mxCell id="32" value="客户端" style="verticalLabelPosition=bottom;aspect=fixed;html=1;verticalAlign=top;strokeColor=none;align=center;outlineConnect=0;shape=mxgraph.citrix.laptop_2;" vertex="1" parent="1">
                    <mxGeometry x="140" y="130" width="116" height="86.5" as="geometry"/>
                </mxCell>
                <mxCell id="34" style="edgeStyle=none;rounded=0;orthogonalLoop=1;jettySize=auto;html=1;" edge="1" parent="1" source="33" target="11">
                    <mxGeometry relative="1" as="geometry"/>
                </mxCell>
                <mxCell id="33" value="客户端" style="verticalLabelPosition=bottom;aspect=fixed;html=1;verticalAlign=top;strokeColor=none;align=center;outlineConnect=0;shape=mxgraph.citrix.laptop_2;" vertex="1" parent="1">
                    <mxGeometry x="140" y="420" width="116" height="86.5" as="geometry"/>
                </mxCell>
            </root>
        </mxGraphModel>
    </diagram>
    <diagram id="xOgin5ymErD6-PJLZMhM" name="第 2 页">
        <mxGraphModel dx="992" dy="577" grid="1" gridSize="10" guides="1" tooltips="1" connect="1" arrows="1" fold="1" page="1" pageScale="1" pageWidth="827" pageHeight="1169" math="0" shadow="0">
            <root>
                <mxCell id="IGzKa7yWNNSoGeHba5V3-0"/>
                <mxCell id="IGzKa7yWNNSoGeHba5V3-1" parent="IGzKa7yWNNSoGeHba5V3-0"/>
                <mxCell id="IGzKa7yWNNSoGeHba5V3-2" style="edgeStyle=none;rounded=0;orthogonalLoop=1;jettySize=auto;html=1;" edge="1" parent="IGzKa7yWNNSoGeHba5V3-1" source="IGzKa7yWNNSoGeHba5V3-3" target="IGzKa7yWNNSoGeHba5V3-4">
                    <mxGeometry relative="1" as="geometry"/>
                </mxCell>
                <mxCell id="IGzKa7yWNNSoGeHba5V3-3" value="客户端" style="verticalLabelPosition=bottom;aspect=fixed;html=1;verticalAlign=top;strokeColor=none;align=center;outlineConnect=0;shape=mxgraph.citrix.laptop_2;" vertex="1" parent="IGzKa7yWNNSoGeHba5V3-1">
                    <mxGeometry x="230" y="340" width="116" height="86.5" as="geometry"/>
                </mxCell>
                <mxCell id="IGzKa7yWNNSoGeHba5V3-4" value="应用服务器" style="verticalLabelPosition=bottom;aspect=fixed;html=1;verticalAlign=top;strokeColor=none;align=center;outlineConnect=0;shape=mxgraph.citrix.web_server;" vertex="1" parent="IGzKa7yWNNSoGeHba5V3-1">
                    <mxGeometry x="550" y="480" width="76.5" height="90" as="geometry"/>
                </mxCell>
                <mxCell id="IGzKa7yWNNSoGeHba5V3-5" style="edgeStyle=none;rounded=0;orthogonalLoop=1;jettySize=auto;html=1;" edge="1" parent="IGzKa7yWNNSoGeHba5V3-1" source="IGzKa7yWNNSoGeHba5V3-6" target="IGzKa7yWNNSoGeHba5V3-4">
                    <mxGeometry relative="1" as="geometry"/>
                </mxCell>
                <mxCell id="IGzKa7yWNNSoGeHba5V3-6" value="客户端" style="verticalLabelPosition=bottom;aspect=fixed;html=1;verticalAlign=top;strokeColor=none;align=center;outlineConnect=0;shape=mxgraph.citrix.laptop_2;" vertex="1" parent="IGzKa7yWNNSoGeHba5V3-1">
                    <mxGeometry x="230" y="480" width="116" height="86.5" as="geometry"/>
                </mxCell>
                <mxCell id="IGzKa7yWNNSoGeHba5V3-7" style="edgeStyle=none;rounded=0;orthogonalLoop=1;jettySize=auto;html=1;" edge="1" parent="IGzKa7yWNNSoGeHba5V3-1" source="IGzKa7yWNNSoGeHba5V3-8" target="IGzKa7yWNNSoGeHba5V3-4">
                    <mxGeometry relative="1" as="geometry"/>
                </mxCell>
                <mxCell id="IGzKa7yWNNSoGeHba5V3-8" value="客户端" style="verticalLabelPosition=bottom;aspect=fixed;html=1;verticalAlign=top;strokeColor=none;align=center;outlineConnect=0;shape=mxgraph.citrix.laptop_2;" vertex="1" parent="IGzKa7yWNNSoGeHba5V3-1">
                    <mxGeometry x="230" y="620" width="116" height="86.5" as="geometry"/>
                </mxCell>
            </root>
        </mxGraphModel>
    </diagram>
    <diagram id="rujIYUcWG3dFiwUMQ1Py" name="第 3 页">
        <mxGraphModel dx="992" dy="577" grid="1" gridSize="10" guides="1" tooltips="1" connect="1" arrows="1" fold="1" page="1" pageScale="1" pageWidth="827" pageHeight="1169" math="0" shadow="0">
            <root>
                <mxCell id="HFduEuq_G43tTKBgMeKg-0"/>
                <mxCell id="HFduEuq_G43tTKBgMeKg-1" parent="HFduEuq_G43tTKBgMeKg-0"/>
                <mxCell id="eanYD6KII5XPU72bwJlt-0" style="rounded=0;orthogonalLoop=1;jettySize=auto;html=1;" edge="1" parent="HFduEuq_G43tTKBgMeKg-1" source="eanYD6KII5XPU72bwJlt-3" target="eanYD6KII5XPU72bwJlt-4">
                    <mxGeometry relative="1" as="geometry"/>
                </mxCell>
                <mxCell id="eanYD6KII5XPU72bwJlt-1" style="rounded=0;orthogonalLoop=1;jettySize=auto;html=1;" edge="1" parent="HFduEuq_G43tTKBgMeKg-1" source="eanYD6KII5XPU72bwJlt-3" target="eanYD6KII5XPU72bwJlt-8">
                    <mxGeometry relative="1" as="geometry"/>
                </mxCell>
                <mxCell id="eanYD6KII5XPU72bwJlt-2" style="rounded=0;orthogonalLoop=1;jettySize=auto;html=1;" edge="1" parent="HFduEuq_G43tTKBgMeKg-1" source="eanYD6KII5XPU72bwJlt-3" target="eanYD6KII5XPU72bwJlt-7">
                    <mxGeometry relative="1" as="geometry"/>
                </mxCell>
                <mxCell id="eanYD6KII5XPU72bwJlt-3" value="负载均衡器" style="verticalLabelPosition=bottom;aspect=fixed;html=1;verticalAlign=top;strokeColor=none;align=center;outlineConnect=0;shape=mxgraph.citrix.proxy_server;" vertex="1" parent="HFduEuq_G43tTKBgMeKg-1">
                    <mxGeometry x="300" y="181.75" width="76.5" height="90" as="geometry"/>
                </mxCell>
                <mxCell id="eanYD6KII5XPU72bwJlt-4" value="应用服务器" style="verticalLabelPosition=bottom;aspect=fixed;html=1;verticalAlign=top;strokeColor=none;align=center;outlineConnect=0;shape=mxgraph.citrix.web_server;" vertex="1" parent="HFduEuq_G43tTKBgMeKg-1">
                    <mxGeometry x="590" y="132.5" width="76.5" height="90" as="geometry"/>
                </mxCell>
                <mxCell id="eanYD6KII5XPU72bwJlt-7" value="应用服务器" style="verticalLabelPosition=bottom;aspect=fixed;html=1;verticalAlign=top;strokeColor=none;align=center;outlineConnect=0;shape=mxgraph.citrix.web_server;" vertex="1" parent="HFduEuq_G43tTKBgMeKg-1">
                    <mxGeometry x="590" y="264.25" width="76.5" height="90" as="geometry"/>
                </mxCell>
                <mxCell id="eanYD6KII5XPU72bwJlt-8" value="应用服务器" style="verticalLabelPosition=bottom;aspect=fixed;html=1;verticalAlign=top;strokeColor=none;align=center;outlineConnect=0;shape=mxgraph.citrix.web_server;" vertex="1" parent="HFduEuq_G43tTKBgMeKg-1">
                    <mxGeometry x="590" y="402.5" width="76.5" height="90" as="geometry"/>
                </mxCell>
                <mxCell id="eanYD6KII5XPU72bwJlt-9" style="edgeStyle=none;rounded=0;orthogonalLoop=1;jettySize=auto;html=1;" edge="1" parent="HFduEuq_G43tTKBgMeKg-1" source="eanYD6KII5XPU72bwJlt-10" target="eanYD6KII5XPU72bwJlt-3">
                    <mxGeometry relative="1" as="geometry"/>
                </mxCell>
                <mxCell id="ajFaWlNfwJyIs18dWhUf-9" value="③" style="edgeLabel;html=1;align=center;verticalAlign=middle;resizable=0;points=[];fontSize=20;" vertex="1" connectable="0" parent="eanYD6KII5XPU72bwJlt-9">
                    <mxGeometry x="0.3245" relative="1" as="geometry">
                        <mxPoint x="-34.9" y="5.76" as="offset"/>
                    </mxGeometry>
                </mxCell>
                <mxCell id="ajFaWlNfwJyIs18dWhUf-10" style="edgeStyle=none;rounded=0;orthogonalLoop=1;jettySize=auto;html=1;fontSize=20;" edge="1" parent="HFduEuq_G43tTKBgMeKg-1" source="eanYD6KII5XPU72bwJlt-10" target="ajFaWlNfwJyIs18dWhUf-0">
                    <mxGeometry relative="1" as="geometry"/>
                </mxCell>
                <mxCell id="ajFaWlNfwJyIs18dWhUf-11" value="③" style="edgeLabel;html=1;align=center;verticalAlign=middle;resizable=0;points=[];fontSize=20;" vertex="1" connectable="0" parent="ajFaWlNfwJyIs18dWhUf-10">
                    <mxGeometry x="0.2174" y="2" relative="1" as="geometry">
                        <mxPoint x="-26.31" y="-4.77" as="offset"/>
                    </mxGeometry>
                </mxCell>
                <mxCell id="eanYD6KII5XPU72bwJlt-10" value="客户端" style="verticalLabelPosition=bottom;aspect=fixed;html=1;verticalAlign=top;strokeColor=none;align=center;outlineConnect=0;shape=mxgraph.citrix.laptop_2;" vertex="1" parent="HFduEuq_G43tTKBgMeKg-1">
                    <mxGeometry x="20.5" y="260" width="116" height="86.5" as="geometry"/>
                </mxCell>
                <mxCell id="eanYD6KII5XPU72bwJlt-13" value="DNS服务器" style="verticalLabelPosition=bottom;aspect=fixed;html=1;verticalAlign=top;strokeColor=none;align=center;outlineConnect=0;shape=mxgraph.citrix.dns_server;" vertex="1" parent="HFduEuq_G43tTKBgMeKg-1">
                    <mxGeometry x="60" y="40" width="76.5" height="92.5" as="geometry"/>
                </mxCell>
                <mxCell id="ajFaWlNfwJyIs18dWhUf-12" style="edgeStyle=none;rounded=0;orthogonalLoop=1;jettySize=auto;html=1;fontSize=20;" edge="1" parent="HFduEuq_G43tTKBgMeKg-1" source="ajFaWlNfwJyIs18dWhUf-0" target="eanYD6KII5XPU72bwJlt-4">
                    <mxGeometry relative="1" as="geometry"/>
                </mxCell>
                <mxCell id="ajFaWlNfwJyIs18dWhUf-13" style="edgeStyle=none;rounded=0;orthogonalLoop=1;jettySize=auto;html=1;fontSize=20;" edge="1" parent="HFduEuq_G43tTKBgMeKg-1" source="ajFaWlNfwJyIs18dWhUf-0" target="eanYD6KII5XPU72bwJlt-7">
                    <mxGeometry relative="1" as="geometry"/>
                </mxCell>
                <mxCell id="ajFaWlNfwJyIs18dWhUf-14" style="edgeStyle=none;rounded=0;orthogonalLoop=1;jettySize=auto;html=1;fontSize=20;" edge="1" parent="HFduEuq_G43tTKBgMeKg-1" source="ajFaWlNfwJyIs18dWhUf-0" target="eanYD6KII5XPU72bwJlt-8">
                    <mxGeometry relative="1" as="geometry"/>
                </mxCell>
                <mxCell id="ajFaWlNfwJyIs18dWhUf-0" value="负载均衡器" style="verticalLabelPosition=bottom;aspect=fixed;html=1;verticalAlign=top;strokeColor=none;align=center;outlineConnect=0;shape=mxgraph.citrix.proxy_server;" vertex="1" parent="HFduEuq_G43tTKBgMeKg-1">
                    <mxGeometry x="300" y="330" width="76.5" height="90" as="geometry"/>
                </mxCell>
                <mxCell id="ajFaWlNfwJyIs18dWhUf-4" value="" style="endArrow=classic;html=1;" edge="1" parent="HFduEuq_G43tTKBgMeKg-1">
                    <mxGeometry width="50" height="50" relative="1" as="geometry">
                        <mxPoint x="70" y="260" as="sourcePoint"/>
                        <mxPoint x="70" y="160" as="targetPoint"/>
                    </mxGeometry>
                </mxCell>
                <mxCell id="ajFaWlNfwJyIs18dWhUf-7" value="①" style="edgeLabel;html=1;align=center;verticalAlign=middle;resizable=0;points=[];fontSize=20;" vertex="1" connectable="0" parent="ajFaWlNfwJyIs18dWhUf-4">
                    <mxGeometry x="0.356" y="4" relative="1" as="geometry">
                        <mxPoint x="4" y="17" as="offset"/>
                    </mxGeometry>
                </mxCell>
                <mxCell id="ajFaWlNfwJyIs18dWhUf-5" value="" style="endArrow=classic;html=1;" edge="1" parent="HFduEuq_G43tTKBgMeKg-1">
                    <mxGeometry width="50" height="50" relative="1" as="geometry">
                        <mxPoint x="110" y="160" as="sourcePoint"/>
                        <mxPoint x="110" y="260" as="targetPoint"/>
                    </mxGeometry>
                </mxCell>
                <mxCell id="ajFaWlNfwJyIs18dWhUf-8" value="②" style="edgeLabel;html=1;align=center;verticalAlign=middle;resizable=0;points=[];fontSize=20;" vertex="1" connectable="0" parent="ajFaWlNfwJyIs18dWhUf-5">
                    <mxGeometry x="-0.396" y="2" relative="1" as="geometry">
                        <mxPoint x="-2" y="19" as="offset"/>
                    </mxGeometry>
                </mxCell>
            </root>
        </mxGraphModel>
    </diagram>
</mxfile>